<svg width="16" height="31" viewBox="0 0 16 31" fill="none" xmlns="http://www.w3.org/2000/svg">
<path fill-rule="evenodd" clip-rule="evenodd" d="M8.01298 25.6568C8.23032 24.6235 8.71417 22.2413 8.58608 18.5077C8.51383 16.0429 7.92678 13.4798 7.29844 11.5128C6.53958 9.13791 5.13963 6.12311 2.82905 3.41731C2.0878 2.54857 1.29494 1.72293 0.419517 1.00292C0.205822 0.826867 -0.0952938 1.06667 0.0291593 1.31436C0.526972 2.30574 0.968325 3.30197 1.37265 4.30366C1.91903 5.63865 2.41623 7.15395 2.75681 8.3408C3.5351 11.0569 4.05052 14.3698 3.98556 16.4758C3.95702 17.4071 4.11062 20.0552 2.90615 24.4323C2.41138 26.2184 1.75451 27.9589 0.990788 29.6697C0.915509 29.8384 1.03753 30.0284 1.22148 30.0284H6.5584C6.66585 30.0284 6.76299 29.9611 6.80002 29.8597C7.29662 28.4925 7.67544 27.2571 8.01298 25.6568Z" fill="#00E6CC"/>
<path fill-rule="evenodd" clip-rule="evenodd" d="M15.2239 26.7081C15.6483 23.6708 15.3872 20.3081 15.1699 18.9337C14.8888 17.1586 14.3163 14.3295 12.7664 11.5818C11.7076 9.70412 10.5481 8.26896 9.23375 7.1076C9.01581 6.91576 8.78876 6.73364 8.55685 6.56062C8.34073 6.39974 8.05843 6.64318 8.17863 6.88359C8.57628 7.68373 8.91685 8.4863 9.21433 9.29252C10.4018 12.5107 10.9761 15.7538 10.9634 19.2451C10.9555 21.3839 10.6422 23.615 10.1602 25.8284C9.87788 27.127 9.53426 28.4158 9.14209 29.6992C9.0923 29.8631 9.21433 30.0282 9.38553 30.0282H14.4146C14.5342 30.0282 14.6393 29.9457 14.6654 29.8291C14.9003 28.8013 15.0824 27.7225 15.2239 26.7081Z" fill="#00E6CC"/>
</svg>
