<svg xmlns="http://www.w3.org/2000/svg" viewBox="0 0 366.5 129.4"><defs><style>.cls-1{fill:#00e6cc;}</style></defs><g id="レイヤー_2" data-name="レイヤー 2"><g id="レイヤー_3" data-name="レイヤー 3"><path class="cls-1" d="M60.2,95.6c0,2.8-.1,5.3-.2,7.4s-.5,4-.8,5.6a25.8,25.8,0,0,1-5.7,11.6c-5.4,6.1-12.8,9.2-22.2,9.2-7.9,0-14.4-2.1-19.5-6.4s-8.1-9.9-9.1-17.2a1,1,0,0,1,.9-1H15.7a.8.8,0,0,1,.8.7,16.5,16.5,0,0,0,2.5,6.1c2.9,3.7,7,5.5,12.5,5.5,10,0,15-6.1,15-18.5V92.3a.8.8,0,0,0-1.4-.6,24.9,24.9,0,0,1-17.4,7A25.3,25.3,0,0,1,7.8,89.9Q0,81.1,0,67.7c0-8.7,2.4-16,7.3-22.1S19.3,36,27.9,36a23.7,23.7,0,0,1,17.2,6.8.8.8,0,0,0,1.4-.6V38.5a.9.9,0,0,1,.9-.9h12a.8.8,0,0,1,.8.9ZM47.1,67.4c0-5.7-1.6-10.4-4.7-13.8a15,15,0,0,0-12-5.3,14.6,14.6,0,0,0-12.3,5.8C15.4,57.5,14,62,14,67.5s1.4,9.8,4.1,13.3,7.1,5.6,12.3,5.6a15.2,15.2,0,0,0,12.5-5.7C45.7,77.3,47.1,72.8,47.1,67.4Z"/><path class="cls-1" d="M114.8,37.6h12a.9.9,0,0,1,.9.9V96.1a.9.9,0,0,1-.9.9h-12a.9.9,0,0,1-.9-.9V92.7a.9.9,0,0,0-1.4-.7c-5.2,4.5-10.9,6.7-16.8,6.7a26.5,26.5,0,0,1-20.4-8.9c-5.3-6.1-8-13.6-8-22.7s2.7-16.3,8-22.2a25.5,25.5,0,0,1,20-8.9,24.5,24.5,0,0,1,17.2,7.1.8.8,0,0,0,1.4-.6v-4A.9.9,0,0,1,114.8,37.6ZM81.3,67.1c0,5.7,1.6,10.3,4.6,13.9a15.2,15.2,0,0,0,11.9,5.4,15.9,15.9,0,0,0,12.3-5.2c3.1-3.6,4.7-8.2,4.7-13.8a20.8,20.8,0,0,0-4.7-13.8,15.8,15.8,0,0,0-12.2-5.3A15.3,15.3,0,0,0,86,53.7,19.9,19.9,0,0,0,81.3,67.1Z"/><path class="cls-1" d="M161.4,84.1h31.8a.8.8,0,0,1,.9.8V96.1a.9.9,0,0,1-.9.9h-59a.8.8,0,0,1-.6-1.4l36.1-43.8a.8.8,0,0,0-.6-1.4H141.4a.9.9,0,0,1-.8-.8V38.5a.9.9,0,0,1,.8-.9h54.8a.9.9,0,0,1,.7,1.4L160.8,82.7A.8.8,0,0,0,161.4,84.1Z"/><path class="cls-1" d="M252.1,70.5H211.3a.8.8,0,0,0-.8,1,17.8,17.8,0,0,0,4.6,10.7,14.6,14.6,0,0,0,10.8,4.2,14,14,0,0,0,8.5-2.4c2.1-1.5,4.4-4.3,7.1-8.3a.8.8,0,0,1,1.1-.3L252.7,81a.9.9,0,0,1,.3,1.2,44.9,44.9,0,0,1-5.2,7.1,28.6,28.6,0,0,1-6.4,5.3,22,22,0,0,1-7.4,3.1,33.3,33.3,0,0,1-8.6,1c-8.8,0-15.9-2.8-21.3-8.5s-8-13.4-8-22.8,2.6-17,7.8-22.8S216.1,36,224.7,36s15.7,2.7,20.7,8.3,7.6,13.2,7.6,23v2.4A.8.8,0,0,1,252.1,70.5ZM237.7,59.3a.8.8,0,0,0,.8-1.1q-3-9.9-13.5-9.9a15,15,0,0,0-4.7.8,13.1,13.1,0,0,0-4,2.2,13.8,13.8,0,0,0-3,3.4,18.9,18.9,0,0,0-1.7,3.5.9.9,0,0,0,.8,1.1Z"/><path class="cls-1" d="M365.4,70.5H324.6a.8.8,0,0,0-.8,1c.5,4.4,2,8,4.7,10.7a14.5,14.5,0,0,0,10.7,4.2,14,14,0,0,0,8.5-2.4c2.1-1.5,4.5-4.3,7.1-8.3a.8.8,0,0,1,1.1-.3L366,81a.9.9,0,0,1,.4,1.2,45.2,45.2,0,0,1-5.3,7.1,28.6,28.6,0,0,1-6.4,5.3,21.5,21.5,0,0,1-7.3,3.1,33.8,33.8,0,0,1-8.6,1c-8.9,0-16-2.8-21.4-8.5s-8-13.4-8-22.8,2.6-17,7.8-22.8S329.4,36,338,36s15.7,2.7,20.8,8.3,7.5,13.2,7.5,23v2.4A.8.8,0,0,1,365.4,70.5ZM351,59.3a.9.9,0,0,0,.9-1.1c-2.1-6.6-6.6-9.9-13.6-9.9a15,15,0,0,0-4.7.8,13.1,13.1,0,0,0-4,2.2,14.3,14.3,0,0,0-4.6,6.9.8.8,0,0,0,.8,1.1Z"/><path class="cls-1" d="M278.4,82.3a96.5,96.5,0,0,0,1.9-23.8A91.1,91.1,0,0,0,276,35.2a79.9,79.9,0,0,0-14.9-27,75.5,75.5,0,0,0-8-8,.8.8,0,0,0-1.3,1c1.6,3.3,3.1,6.7,4.5,10s3.4,9.5,4.6,13.4c2.6,9.1,4.3,20.1,4.1,27.2a92,92,0,0,1-3.6,26.5A139.9,139.9,0,0,1,255,95.7a.8.8,0,0,0,.8,1.2h17.7a.8.8,0,0,0,.8-.6A85.6,85.6,0,0,0,278.4,82.3Z"/><path class="cls-1" d="M302.4,85.8a102.2,102.2,0,0,0-.2-25.9,71.7,71.7,0,0,0-8-24.5,56.7,56.7,0,0,0-11.8-14.9l-2.2-1.8a.9.9,0,0,0-1.3,1.1,69.4,69.4,0,0,1,3.5,8A92.8,92.8,0,0,1,288.2,61a104.9,104.9,0,0,1-2.7,21.9c-.9,4.3-2.1,8.6-3.4,12.9a.9.9,0,0,0,.9,1.1h16.7a.8.8,0,0,0,.8-.7C301.3,92.8,301.9,89.2,302.4,85.8Z"/></g></g></svg>