<svg width="135" height="31" viewBox="0 0 135 31" fill="none" xmlns="http://www.w3.org/2000/svg">
<path d="M28.2821 14.4597H15.3461L14.1701 19.8357H20.5541C20.0081 22.0617 17.7401 24.8757 13.2041 24.8757C9.1721 24.8757 6.9041 22.6497 6.9041 17.6517C6.9041 10.0917 12.0281 5.9757 17.3621 5.9757C22.3181 5.9757 23.7041 9.5457 23.7041 9.5457L28.5761 6.0177C28.5761 6.0177 26.5601 0.0957031 17.8661 0.0957031C8.1641 0.0957031 0.100098 7.4037 0.100098 18.1977C0.100098 26.0937 4.4261 30.6717 11.7341 30.6717C19.8401 30.6717 25.9301 25.0437 27.4841 18.0717L28.2821 14.4597Z" fill="white"/>
<path d="M47.8699 29.9997L52.1119 10.9317H46.5258L45.3918 13.9137C45.3918 13.9137 45.4758 10.4277 40.3098 10.4277C33.7998 10.4277 29.1798 16.0557 29.1798 22.9017C29.1798 29.5797 33.5478 30.5037 35.9838 30.5037C38.7138 30.5037 41.2338 29.3277 42.7458 27.0177V29.9997H47.8699ZM38.5458 25.6317C36.9078 25.6317 35.4799 24.8337 35.4799 22.2717C35.4799 19.2897 37.4118 15.2997 40.9818 15.2997C42.6198 15.2997 44.0478 16.1397 44.0478 18.7017C44.0478 21.7257 42.1158 25.6317 38.5458 25.6317Z" fill="white"/>
<path d="M69.3722 29.9997L70.3802 25.4637H61.1822L72.6482 13.1157L73.1522 10.9317H55.7642L54.7562 15.4677H63.5762L51.7742 27.9837L51.3122 29.9997H69.3722Z" fill="white"/>
<path d="M88.1111 24.0357C88.1111 24.0357 86.1371 25.9677 82.8191 25.9677C79.7531 25.9677 78.7031 24.2877 78.7031 22.6917C78.7031 22.2717 78.7871 21.7677 78.7871 21.7677C78.7871 21.7677 80.8031 22.6077 84.0371 22.6077C89.7911 22.6077 92.9831 19.9197 92.9831 16.2657C92.9831 12.8637 90.2111 10.4277 85.3811 10.4277C78.2411 10.4277 72.7391 15.8037 72.7391 22.3557C72.7391 27.7737 76.4771 30.5037 81.6011 30.5037C87.4391 30.5037 90.7991 26.9757 90.7991 26.9757L88.1111 24.0357ZM79.7111 17.9037C80.8871 15.3837 83.0711 14.4597 84.8351 14.4597C86.5991 14.4597 87.2711 15.3837 87.2711 16.4337C87.2711 17.4837 86.5991 18.5757 83.3231 18.5757C80.7191 18.5757 79.7111 17.9037 79.7111 17.9037Z" fill="white"/>
<path d="M99.5486 29.9997L106.101 0.599702H100.095L93.5426 29.9997H99.5486Z" fill="white"/>
<path d="M108.779 29.9997L115.331 0.599702H109.325L102.773 29.9997H108.779Z" fill="white"/>
<path d="M129.181 24.0357C129.181 24.0357 127.207 25.9677 123.889 25.9677C120.823 25.9677 119.773 24.2877 119.773 22.6917C119.773 22.2717 119.857 21.7677 119.857 21.7677C119.857 21.7677 121.873 22.6077 125.107 22.6077C130.861 22.6077 134.053 19.9197 134.053 16.2657C134.053 12.8637 131.281 10.4277 126.451 10.4277C119.311 10.4277 113.809 15.8037 113.809 22.3557C113.809 27.7737 117.547 30.5037 122.671 30.5037C128.509 30.5037 131.869 26.9757 131.869 26.9757L129.181 24.0357ZM120.781 17.9037C121.957 15.3837 124.141 14.4597 125.905 14.4597C127.669 14.4597 128.341 15.3837 128.341 16.4337C128.341 17.4837 127.669 18.5757 124.393 18.5757C121.789 18.5757 120.781 17.9037 120.781 17.9037Z" fill="white"/>
</svg>
